<svg width="14" height="14" viewBox="0 0 14 14" fill="none" xmlns="http://www.w3.org/2000/svg">
<path d="M6.36743 2.26514H2.19276C1.87642 2.26514 1.57304 2.3908 1.34935 2.61449C1.12567 2.83818 1 3.14156 1 3.4579V11.8072C1 12.1236 1.12567 12.427 1.34935 12.6506C1.57304 12.8743 1.87642 13 2.19276 13H10.5421C10.8584 13 11.1618 12.8743 11.3855 12.6506C11.6092 12.427 11.7349 12.1236 11.7349 11.8072V7.63257" stroke="#6DC4F4"  strokeLinecap="round"  strokeLinejoin="round"/>
<path d="M10.8401 1.37054C11.0774 1.13329 11.3992 1 11.7347 1C12.0702 1 12.392 1.13329 12.6293 1.37054C12.8665 1.6078 12.9998 1.92959 12.9998 2.26512C12.9998 2.60065 12.8665 2.92243 12.6293 3.15969L6.96365 8.82531L4.57812 9.42169L5.17451 7.03617L10.8401 1.37054Z" stroke="#6DC4F4"  strokeLinecap="round"  strokeLinejoin="round"/>
</svg>
