<svg width="19" height="15" viewBox="0 0 19 15" fill="none" xmlns="http://www.w3.org/2000/svg">
<g clip-path="url(#clip0_148_2433)">
<path d="M9.49975 0.994141C6.08447 0.994141 3.53342 3.14336 2.0167 4.90379C0.878548 6.22486 0.878548 8.09296 2.0167 9.41407C3.53342 11.1745 6.08447 13.3237 9.49975 13.3237C12.915 13.3237 15.4661 11.1745 16.9828 9.41407C18.121 8.09296 18.121 6.22486 16.9828 4.90379C15.4661 3.14336 12.915 0.994141 9.49975 0.994141Z" stroke="#B6B6B6" strokeWidth="1.5" strokeLinecap="round" strokeLinejoin="round"/>
<path d="M9.50029 9.80118C11.0063 9.80118 12.2271 8.61834 12.2271 7.15914C12.2271 5.69993 11.0063 4.51709 9.50029 4.51709C7.99425 4.51709 6.77344 5.69993 6.77344 7.15914C6.77344 8.61834 7.99425 9.80118 9.50029 9.80118Z" stroke="#B6B6B6" strokeWidth="1.5" strokeLinecap="round" strokeLinejoin="round"/>
</g>
<defs>
<clipPath id="clip0_148_2433">
<rect width="19" height="15" fill="white"/>
</clipPath>
</defs>
</svg>
