<svg width="612" height="612" viewBox="0 0 612 612" fill="none" xmlns="http://www.w3.org/2000/svg">
<path d="M306 605.855L169.297 508.21C90.1958 451.708 43.25 360.485 43.25 263.277V118.047L306 5.43984L568.75 118.047V263.277C568.75 360.485 521.805 451.708 442.703 508.21L306 605.855Z" fill="black" stroke="#F5F5F5" stroke-width="10"/>
<path opacity="0.82" d="M198.581 324.87C198.581 292.865 198.581 276.862 208.524 266.919C218.467 256.976 234.469 256.976 266.475 256.976H357C389.005 256.976 405.007 256.976 414.951 266.919C424.894 276.862 424.894 292.865 424.894 324.87C424.894 356.875 424.894 372.878 414.951 382.821C405.007 392.764 389.005 392.764 357 392.764H266.475C234.469 392.764 218.467 392.764 208.524 382.821C198.581 372.878 198.581 356.875 198.581 324.87Z" fill="#AFBEF6"/>
<path d="M320.224 302.239C320.224 297.552 316.425 293.752 311.738 293.752C307.051 293.752 303.251 297.552 303.251 302.239V347.501C303.251 352.188 307.051 355.988 311.738 355.988C316.425 355.988 320.224 352.188 320.224 347.501V302.239Z" fill="black"/>
<path d="M252.331 234.345C252.331 201.535 278.928 174.938 311.738 174.938C344.548 174.938 371.145 201.535 371.145 234.345V257.017C377.565 257.077 383.179 257.225 388.118 257.594V234.345C388.118 192.161 353.921 157.965 311.738 157.965C269.554 157.965 235.357 192.161 235.357 234.345V257.594C240.297 257.225 245.911 257.077 252.331 257.017V234.345Z" fill="#6A79AA"/>
</svg>
