<svg width="905" height="982" viewBox="0 0 905 982" fill="none" xmlns="http://www.w3.org/2000/svg">
<g filter="url(#filter0_b_42_123)">
<path d="M3.67233e-06 21.0034L0 0.000152588L515.344 6.24822e-05C558.676 5.49059e-05 593.803 35.1272 593.803 78.4588C593.803 121.79 628.93 156.918 672.262 156.918L749.401 156.918C835.336 156.918 905 226.581 905 312.516L905 569.459L905 818.814C905 908.939 831.939 982 741.814 982C651.689 982 578.628 908.939 578.628 818.814L578.628 544.127C578.628 467.14 516.217 404.729 439.229 404.729L422.576 404.729C357.416 404.729 303.766 353.506 300.75 288.416C297.735 223.325 244.085 172.103 178.925 172.103L151.1 172.103C67.6497 172.103 1.82632e-05 104.454 3.67233e-06 21.0034Z" fill="url(#paint0_linear_42_123)" fill-opacity="0.5"/>
</g>
<defs>
<filter id="filter0_b_42_123" x="-120" y="-120" width="1145" height="1222" filterUnits="userSpaceOnUse" color-interpolation-filters="sRGB">
<feFlood flood-opacity="0" result="BackgroundImageFix"/>
<feGaussianBlur in="BackgroundImageFix" stdDeviation="60"/>
<feComposite in2="SourceAlpha" operator="in" result="effect1_backgroundBlur_42_123"/>
<feBlend mode="normal" in="SourceGraphic" in2="effect1_backgroundBlur_42_123" result="shape"/>
</filter>
<linearGradient id="paint0_linear_42_123" x1="23.7521" y1="0.000129958" x2="809.991" y2="963.195" gradientUnits="userSpaceOnUse">
<stop stop-color="#EBEBEB" stop-opacity="0.35"/>
<stop stop-color="#BFBAFE" stop-opacity="0.693532"/>
<stop offset="0.388975" stop-color="#825CD3"/>
<stop offset="0.994177" stop-color="#2C1033"/>
</linearGradient>
</defs>
</svg>
